<mxfile host="65bd71144e">
    <diagram id="ke7SLSOwhaF26EAkAjyg" name="페이지-1">
        <mxGraphModel dx="660" dy="368" grid="0" gridSize="10" guides="1" tooltips="1" connect="1" arrows="1" fold="1" page="1" pageScale="1" pageWidth="827" pageHeight="1169" background="#F0F0F0" math="0" shadow="0">
            <root>
                <mxCell id="0"/>
                <mxCell id="1" parent="0"/>
                <mxCell id="16" value="" style="edgeStyle=none;html=1;fontFamily=Verdana;entryX=0;entryY=0.5;entryDx=0;entryDy=0;strokeColor=#B3B3B3;strokeWidth=2;" edge="1" parent="1" source="2" target="3">
                    <mxGeometry relative="1" as="geometry"/>
                </mxCell>
                <mxCell id="2" value="Client" style="fontStyle=1;rounded=1;fontFamily=Verdana;strokeColor=#B3B3B3;strokeWidth=2;" vertex="1" parent="1">
                    <mxGeometry x="100" y="120" width="86" height="48" as="geometry"/>
                </mxCell>
                <mxCell id="3" value="&amp;lt;&amp;lt;&lt;i&gt;Interface&lt;/i&gt;&amp;gt;&amp;gt;&lt;br&gt;&lt;b&gt;Classifier1&lt;/b&gt;" style="swimlane;fontStyle=0;align=center;verticalAlign=middle;childLayout=stackLayout;horizontal=1;startSize=42;horizontalStack=0;resizeParent=1;resizeParentMax=0;resizeLast=0;collapsible=0;marginBottom=0;html=1;strokeColor=#B3B3B3;strokeWidth=2;fontFamily=Verdana;rounded=0;fillColor=#B3B3B3;" vertex="1" parent="1">
                    <mxGeometry x="244" y="99" width="140" height="90" as="geometry"/>
                </mxCell>
                <mxCell id="5" value="- attribute1: String" style="text;html=1;strokeColor=none;fillColor=none;align=left;verticalAlign=middle;spacingLeft=4;spacingRight=4;overflow=hidden;rotatable=0;points=[[0,0.5],[1,0.5]];portConstraint=eastwest;strokeWidth=2;fontFamily=Verdana;" vertex="1" parent="3">
                    <mxGeometry y="42" width="140" height="20" as="geometry"/>
                </mxCell>
                <mxCell id="8" value="" style="line;strokeWidth=2;fillColor=none;align=left;verticalAlign=middle;spacingTop=-1;spacingLeft=3;spacingRight=3;rotatable=0;labelPosition=right;points=[];portConstraint=eastwest;strokeColor=#B3B3B3;fontFamily=Verdana;" vertex="1" parent="3">
                    <mxGeometry y="62" width="140" height="8" as="geometry"/>
                </mxCell>
                <mxCell id="10" value="+ operation1(): void" style="text;html=1;strokeColor=none;fillColor=none;align=left;verticalAlign=middle;spacingLeft=4;spacingRight=4;overflow=hidden;rotatable=0;points=[[0,0.5],[1,0.5]];portConstraint=eastwest;strokeWidth=2;fontFamily=Verdana;" vertex="1" parent="3">
                    <mxGeometry y="70" width="140" height="20" as="geometry"/>
                </mxCell>
                <mxCell id="11" value="&lt;b&gt;Classifier1&lt;/b&gt;" style="swimlane;fontStyle=0;align=center;verticalAlign=middle;childLayout=stackLayout;horizontal=1;startSize=33;horizontalStack=0;resizeParent=1;resizeParentMax=0;resizeLast=0;collapsible=0;marginBottom=0;html=1;strokeColor=#B3B3B3;strokeWidth=2;fontFamily=Verdana;rounded=0;fillColor=#B3B3B3;" vertex="1" parent="1">
                    <mxGeometry x="414" y="103.5" width="140" height="81" as="geometry"/>
                </mxCell>
                <mxCell id="12" value="- attribute1: String" style="text;html=1;strokeColor=none;fillColor=none;align=left;verticalAlign=middle;spacingLeft=4;spacingRight=4;overflow=hidden;rotatable=0;points=[[0,0.5],[1,0.5]];portConstraint=eastwest;strokeWidth=2;fontFamily=Verdana;" vertex="1" parent="11">
                    <mxGeometry y="33" width="140" height="20" as="geometry"/>
                </mxCell>
                <mxCell id="13" value="" style="line;strokeWidth=2;fillColor=none;align=left;verticalAlign=middle;spacingTop=-1;spacingLeft=3;spacingRight=3;rotatable=0;labelPosition=right;points=[];portConstraint=eastwest;strokeColor=#B3B3B3;fontFamily=Verdana;" vertex="1" parent="11">
                    <mxGeometry y="53" width="140" height="8" as="geometry"/>
                </mxCell>
                <mxCell id="14" value="+ operation1(): void" style="text;html=1;strokeColor=none;fillColor=none;align=left;verticalAlign=middle;spacingLeft=4;spacingRight=4;overflow=hidden;rotatable=0;points=[[0,0.5],[1,0.5]];portConstraint=eastwest;strokeWidth=2;fontFamily=Verdana;" vertex="1" parent="11">
                    <mxGeometry y="61" width="140" height="20" as="geometry"/>
                </mxCell>
            </root>
        </mxGraphModel>
    </diagram>
</mxfile>